<?xml version="1.0" encoding="utf-8"?>
<!-- Generator: Adobe Illustrator 24.1.1, SVG Export Plug-In . SVG Version: 6.00 Build 0)  -->
<svg version="1.1" id="Logo" xmlns="http://www.w3.org/2000/svg" xmlns:xlink="http://www.w3.org/1999/xlink" x="0px" y="0px"
	 viewBox="0 0 707 298.8" style="enable-background:new 0 0 707 298.8;" xml:space="preserve">
<style type="text/css">
	.st0{fill:#4472C4;}
	.st1{font-family:'ErasITC-Light';}
	.st2{font-size:95px;}
</style>
<text id="Wortmarke" transform="matrix(1 0 0 1 90.72 275.01)" class="st0 st1 st2">My Cargonaut</text>
<g id="Bildmarke">
	<polygon class="st0" points="244,0 261,0 240,183 223,183 	"/>
	<polygon class="st0" points="268,23 266,34 382,40 499,46 706,57 	"/>
	<polyline class="st0" points="704.1,84.3 263.2,64.3 261.3,71.8 	"/>
	<polyline class="st0" points="706,121 260.5,101.1 258.5,108.7 	"/>
	<polyline class="st0" points="707,151 255.9,136.2 253.9,142.1 	"/>
	<polyline class="st0" points="703,181 251.7,176.1 249.8,182 	"/>
	<path class="st0" d="M216,153l20-129c-13.2-3.5-47.8-2.6-75,8c-23,9-40.9,20.6-42,35l71-1l-61-3c16-35,94-30,94-30L216,153z"/>
	<path class="st0" d="M49,129c-33,14-31,45-31,45h56c23-49,63-13,63-13c8,10,7,16,7,16c-15-27-46-19-46-19c-17,8-21,26-21,26l-77-1
		c14-67,54-64,54-64l21-1c10-41,31-44,31-44l86-2l-77,6c-10,2-9,9-9,9l61-1l-8,39L49,129"/>
</g>
</svg>
